<svg xmlns="http://www.w3.org/2000/svg" viewBox="0 0 179.75 443.77"><defs><style>.cls-1{fill:#231f20;}</style></defs><g id="Layer_2" data-name="Layer 2"><g id="Layer_1-2" data-name="Layer 1"><path class="cls-1" d="M114.63,320.66a177.76,177.76,0,0,1-1.21,26.64,123.32,123.32,0,0,1-6.3,26c-3.1,8.54-7,17-11,25.45-1.89,4-3.79,7.91-5.63,11.9-1.86-4.12-3.91-8.14-6-12.08A182.65,182.65,0,0,1,73,373.34a152.48,152.48,0,0,1-6.36-26.07c-1.64-8.8-2.2-17.68-3.18-26.61a149.07,149.07,0,0,0-2.32,26.81,113.21,113.21,0,0,0,3.25,27c2.09,9,5.84,17.78,9.89,26.31s8,16.8,10,25.27l4.09,17.76,6.94-17.37c3.41-8.54,7.32-17,11-25.64s7.2-17.36,9.42-26.31a96.84,96.84,0,0,0,3.2-27A107.51,107.51,0,0,0,114.63,320.66Z"/><path class="cls-1" d="M150.49,199.9c0-1.09,0-2.33.09-3.73.82-29.35,3.25-117.24-53.71-188.26l0,0q-.48-.61-1-1.23a38.9,38.9,0,0,0-3.39-3.61L89.16.23,88.89,0a227.21,227.21,0,0,0-38,63.54l-.71,1.86C29,119.67,30.44,172,31,193.33c.05,1.84.1,3.41.12,4.71C14.86,214.09-3,233.67.44,257.23c3.75,25.4,27.79,70.52,40,90.84L48.18,361l-1.49-15c-.91-9.1-1.82-30.06,1.43-43.55,6.67,7.85,24.4,12,41.3,12,17.52,0,35.93-4.48,42-12.89,3.5,13.43,2.57,35.12,1.65,44.42l-1.48,15,7.75-12.92c12.19-20.32,36.23-65.44,40-90.84C182.66,234.57,166.24,215.6,150.49,199.9ZM89.68,13.35a218.26,218.26,0,0,1,31.47,53.47C113.21,70.37,103.4,72.3,93,72.3c-12.56,0-24.4-2.92-32.74-7.84A219.64,219.64,0,0,1,89.68,13.35ZM57.75,70.85c9.31,5.24,21.8,8.22,35.26,8.22a77,77,0,0,0,30.64-6c18.76,49.16,18.58,96.61,18,119.06l-1.88,1.74c-22,20.37-24.21,82.16-24.21,82.77s0,1.18-.09,1.61a14.54,14.54,0,0,0,0,1.7,93.78,93.78,0,0,0-26-3.5,94.64,94.64,0,0,0-25.08,3.23c0-.44,0-.91-.06-1.43s-.09-.95-.09-1.61S62,214.48,40.09,194c0-.31,0-.6,0-.93C39.49,172.59,38.12,122.7,57.75,70.85ZM48.51,287l-.19.17c-3.17,3-5.31,8-6.73,13.73a161.74,161.74,0,0,1-8.75-14.39,118.79,118.79,0,0,1-9.58-22.93c-2.24-7.93-3.43-16.35-1.74-24.45a28.52,28.52,0,0,1,5.06-11.22A32.1,32.1,0,0,1,36,219.7a32.55,32.55,0,0,0-10.07,7.7,29.72,29.72,0,0,0-6,11.33c-2.35,8.4-1.68,17.3.1,25.68a122,122,0,0,0,8.31,24.36A166.64,166.64,0,0,0,40,310.15a157.64,157.64,0,0,0-.86,22.08c-13.25-23.83-29.16-57-32-76-2.91-19.72,11.2-36.09,30.47-55.05,16.09,18.69,19.81,66.94,19.81,75.48,0,.91.06,1.62.11,2.21,0,.18,0,.33,0,.47a75,75,0,0,1-6.49,5.56Zm40.91,20.67c-22.77,0-37.3-7.24-37.3-12.22s14.53-12.22,37.3-12.22,37.3,7.24,37.3,12.22S112.19,307.69,89.42,307.69Zm83.2-51.45c-2.8,19-18.71,52.16-32,76a157.64,157.64,0,0,0-.86-22.08,166.64,166.64,0,0,0,11.67-21.38,122,122,0,0,0,8.31-24.36c1.78-8.38,2.45-17.28.1-25.68a29.85,29.85,0,0,0-6-11.33,32.55,32.55,0,0,0-10.07-7.7,32.1,32.1,0,0,1,9.41,8.23,28.52,28.52,0,0,1,5.06,11.22c1.69,8.1.5,16.52-1.74,24.45a118.79,118.79,0,0,1-9.58,22.93,161.74,161.74,0,0,1-8.75,14.39c-1.42-5.77-3.56-10.71-6.73-13.73l-2.77-2.28a75,75,0,0,1-6.49-5.56c0-.14,0-.29,0-.47,0-.59.11-1.3.11-2.21,0-8.41,3.62-55.31,19.09-74.59v0h1.66C161.87,220.68,175.48,236.85,172.62,256.24Z"/><path class="cls-1" d="M92.47,3.05,89.16.23C89.92.85,91.06,1.72,92.47,3.05Z"/></g></g></svg>