<svg xmlns="http://www.w3.org/2000/svg" viewBox="0 0 1120.98 281.72"><defs><style>.cls-1{fill:#231f20;}</style></defs><g id="Layer_2" data-name="Layer 2"><g id="Layer_1-2" data-name="Layer 1"><path class="cls-1" d="M151.54,158.47a1.2,1.2,0,0,0-.79-.29,3.27,3.27,0,0,0-1.28.33l-1.17.69q-15.13,8.85-30.15,19.76A308,308,0,0,0,89,203a209.64,209.64,0,0,0-20-13.87l-5.28-3.43q-4.78-3-9.78-6.14Q45.6,174.39,37.64,169A117.8,117.8,0,0,1,23.15,157.4,75.72,75.72,0,0,1,9.78,141.34q-5.73-9.45-5.73-22.12A81.1,81.1,0,0,1,9.54,90.3,126.53,126.53,0,0,1,26.35,59.8,151.92,151.92,0,0,1,50.16,34.26,160.31,160.31,0,0,1,77.32,15.54q14-7.6,23-9.35a77.57,77.57,0,0,1,13.37-1.73,34.38,34.38,0,0,1,13.5,2.6q7.38,3.35,10.38,8.87a38.36,38.36,0,0,1,4,13.08,39.54,39.54,0,0,1,.37,5.54,54.16,54.16,0,0,1-1,10.15A151.42,151.42,0,0,1,136.51,62a111.68,111.68,0,0,1-13.45,29.3,24.06,24.06,0,0,0-14.73,8.25q-4.55,5-4.54,8a3.52,3.52,0,0,0,.29,1.41,2.28,2.28,0,0,0,2.06,1.52l.37,0q9.28-2.26,19-17a126.72,126.72,0,0,0,14.93-32.19Q144.9,47.21,144.89,36a49.65,49.65,0,0,0-3.3-18.78Q137.47,7.07,128.43,3.18a44.93,44.93,0,0,0-17-3.18l-1.78.05Q94.42.71,77.89,8.4A142.46,142.46,0,0,0,46.1,29,153.41,153.41,0,0,0,21.85,54.87,116.85,116.85,0,0,0,5.57,84.66,89,89,0,0,0,0,115.1a55.15,55.15,0,0,0,6.28,26.33A71.26,71.26,0,0,0,20.47,160a161.74,161.74,0,0,0,18.26,14.85q9.89,6.93,19.79,13.25L61,189.71a274.4,274.4,0,0,1,23.86,17.12q-2.11,2.07-9.74,9.7-15.6,15.65-23.28,28.35-5.32,8.79-5.32,14.57a8.54,8.54,0,0,0,1.9,5.69q4.08,4.71,11.84,5.41c1.13.11,2.27.16,3.43.16a42.57,42.57,0,0,0,12.13-1.89,50.83,50.83,0,0,0,15.83-8,42.66,42.66,0,0,0,12.15-14.17,31.38,31.38,0,0,0,3.75-14.2A25.16,25.16,0,0,0,104.24,220a44.28,44.28,0,0,0-8.33-10.73q-1.91-1.77-3.72-3.38c-.63-.56-1.18-1.05-1.65-1.49A308.09,308.09,0,0,1,121,179.66a207,207,0,0,1,27.22-16.87c.94-.47,1.87-.92,2.78-1.35.66-.33,1-.67,1.05-1s.06-.56.06-.64A1.69,1.69,0,0,0,151.54,158.47ZM94.75,216.12a61.69,61.69,0,0,1,5.35,6.58,18.79,18.79,0,0,1,3.15,6.62,28.7,28.7,0,0,1,.54,5.74c0,.74,0,1.5-.08,2.27a22.6,22.6,0,0,1-2.4,8.79,32.76,32.76,0,0,1-11,11.91,54.54,54.54,0,0,1-14.47,6.7A30.74,30.74,0,0,1,69.13,266c-2,.11-3.49.16-4.5.16a36.72,36.72,0,0,1-4.09-.2q-6.15-.87-8-3.55a9.71,9.71,0,0,1-1.86-5.61,12.44,12.44,0,0,1,.21-2.23,27.25,27.25,0,0,1,3.54-8.87q7.07-12,22-27.82,3.18-3.34,6.64-6.52,1.62-1.49,3.3-3.13l1.45,1.32C91.57,213,93.9,215.16,94.75,216.12Z"/><path class="cls-1" d="M221.69,158.1a1,1,0,0,0-.79-.33,1.4,1.4,0,0,0-.79.22,2.06,2.06,0,0,0-.81,1.1,90.13,90.13,0,0,1-8.63,12.25,24.07,24.07,0,0,1-8,6,7.81,7.81,0,0,1-3.21.66,8,8,0,0,1-6-2.31,21.64,21.64,0,0,1-4.19-10.28,115.64,115.64,0,0,1-1.38-13,57.27,57.27,0,0,0-.54-6.1,19.31,19.31,0,0,0-1.32-5,7.06,7.06,0,0,0-3.42-3.79,8.07,8.07,0,0,0-2.6-.46,6.14,6.14,0,0,0-2.89.7q-4,2.07-7.39,8.71a170.49,170.49,0,0,0-9,19,111.35,111.35,0,0,1-4.83,10.77c-1.3,2.56-2.22,3.83-2.77,3.83-.36,0-.53-2.17-.53-6.52q0-9.08,1.07-25.91,1.44-22.95,4.66-50.57t7.64-51.86l.08-.61A2.6,2.6,0,0,0,165.4,43a1.85,1.85,0,0,0-1.53-.72c-1,0-2.07.76-3.09,2.27q-5.11,8-5.51,10.61c-.26,1.76-.39,2.82-.39,3.17,0,1.68.48,2.54,1.44,2.56a6.59,6.59,0,0,0,1.49-.2Q149,105.16,148.3,159.2c0,1.19,0,2.39,0,3.59,0,2.15,0,4.32,0,6.49q0,10.6.38,20.68a2.1,2.1,0,0,0,.78,1.81,2.59,2.59,0,0,0,1.57.58h.33a2,2,0,0,0,1.52-1.32l2.85-7.39q2.85-7.38,7.29-17.12t9-17.83q3.72-6.81,6.89-6.81a2.39,2.39,0,0,1,1.94.66q1.41,1.69,1.94,10.28c.06.77.1,1.56.13,2.39a87,87,0,0,0,1.44,12.54,24.19,24.19,0,0,0,5.32,11.35c1.68,1.74,3.22,2.65,4.63,2.75s2.29.14,2.68.14q5.52,0,10.93-4.54a62.57,62.57,0,0,0,11.48-13.69c.39-.58.77-1.17,1.15-1.78l1.32-2.11a2.93,2.93,0,0,0,.21-1A1.16,1.16,0,0,0,221.69,158.1Z"/><path class="cls-1" d="M286.52,158.06c-.17-.39-.38-.59-.64-.6l-.43,0a1.33,1.33,0,0,0-.83.32,2.68,2.68,0,0,0-.37.38,53.92,53.92,0,0,1-9.33,9.28q-6.81,5.13-10.89,5.12h-.41q-8.79,0-8.79-13.2c0-1.19.09-2.88.29-5.08.41-4,.76-6.71,1.07-8.25a10.91,10.91,0,0,0,.62-3.39c0-1-.25-1.66-.75-1.94a4.41,4.41,0,0,0-1.65-.33q-4.62,0-6.56,8.05a134.9,134.9,0,0,1-14.61,27.28c-2.69,2.86-4.8,4.29-6.31,4.29-2.06,0-3.1-2.52-3.1-7.55q0-6.07,2.36-17.42l1.73-8.66a1.79,1.79,0,0,0-.5-1.2,2.69,2.69,0,0,0-2.18-1,3.56,3.56,0,0,0-2.15.91l-.45.37a3.87,3.87,0,0,0-1.49,3,3,3,0,0,0,.25,1.12q-.74,4.63-1.29,8.43c-.31,2.12-.58,4-.81,5.77a86,86,0,0,0-.83,9.28q0,8.29,3.59,10.73a7,7,0,0,0,2.81.61q5.85,0,12.62-10.77,8.38-13.41,9.91-17.66,1.36-3.63,1.65-3.63c.08,0,.12.14.12.41l0,.62c0,1.24-.08,2.31-.08,3.22a54.15,54.15,0,0,0,.54,8c.9,4.85,3.19,8.35,6.85,10.53a10.4,10.4,0,0,0,4.45,1.07q6.64,0,14.2-6.15l1.53-1.19a50.42,50.42,0,0,0,8-7.48q.21-.23.39-.45l1.16-1.4a1.61,1.61,0,0,0,.41-1A.87.87,0,0,0,286.52,158.06Z"/><path class="cls-1" d="M410.28,157.64c-.44,0-.91.35-1.4,1l-.15.24-8.73,14q-9.53,15.06-14.44,21.66-1.41,2-3.63,4.46-4,4.45-6.15,4.46a2.43,2.43,0,0,1-1.12-.29A7.73,7.73,0,0,1,371.2,199a28.16,28.16,0,0,1-1.73-6.52c-.36-2.37-.62-4.6-.79-6.66l-.17-1.81q-1.2-12.59-1.19-25.06c0-1.45,0-2.91,0-4.36s.06-2.62.1-3.93q.15-4.62.4-9.15a345.92,345.92,0,0,1,5.62-46.77q7.68-19.75,7.68-35.62a23.9,23.9,0,0,0-.63-6.84c-.82-2.32-1.69-3.46-2.59-3.46q-2.52,0-5,6.76a30.88,30.88,0,0,0-1.28,4.09q-3.47,16.63-6,37.66t-2.92,34.82q-.39,13.82-.38,18.55,0,7,.29,13.85c.1,2.67.23,5.35.41,8q.45,6.92,1.17,13.75a62.76,62.76,0,0,0,2.49,12.2c1.17,3.67,2.46,6.07,3.88,7.18a6.37,6.37,0,0,0,3.69,1.67,7.69,7.69,0,0,0,4.25-1.57,35.77,35.77,0,0,0,5-4.8,55.12,55.12,0,0,0,4-4.94q5.19-7.35,14.6-22.11l5.71-9,3.37-5.34a4,4,0,0,0,.08-.78C411.22,158,410.92,157.64,410.28,157.64Z"/><path class="cls-1" d="M457.24,158.76a1.08,1.08,0,0,0-1.69-.29l0,0q-.79,1.17-12.06,10.69-14.65,11.93-22.37,11.92l-1.4,0a6.34,6.34,0,0,1-5.53-2.56,16,16,0,0,1-1.53-7.39c0-.66,0-1.35.08-2.06v-1.28a46.62,46.62,0,0,1,1.94-10.44c.09-.39.29-.58.62-.58,1.35.19,2.17.29,2.48.29a11.84,11.84,0,0,0,8.35-3.41,9.94,9.94,0,0,0,3.41-7.28,6.38,6.38,0,0,0-1.24-3.63,5.73,5.73,0,0,0-4.25-2.52,9,9,0,0,0-5.24,1.61q-5.82,3.75-9,13.41a35.61,35.61,0,0,0-1,3.59,45.32,45.32,0,0,0-1,6c-.14,1.31-.22,2.67-.26,4.07l0,1.45a17.41,17.41,0,0,0,3.1,10.35,10.77,10.77,0,0,0,8.75,3.8,13.59,13.59,0,0,0,1.44-.08,29.06,29.06,0,0,0,12-4.09,120,120,0,0,0,13-9.57l9.71-8.72.94-.85a2.71,2.71,0,0,0,1.07-1.82A1.11,1.11,0,0,0,457.24,158.76Zm-40.9-5.66a28.41,28.41,0,0,1,2.5-3.79,21.65,21.65,0,0,1,2.79-3.06,4.69,4.69,0,0,1,2.89-1.23c1.12,0,1.73.68,1.81,2.06a6.57,6.57,0,0,1-2.14,4.74,8.09,8.09,0,0,1-5.91,2.77,9.91,9.91,0,0,1-1.19-.08,1.26,1.26,0,0,1-.79-.29.67.67,0,0,1-.16-.41A1.75,1.75,0,0,1,416.34,153.1Z"/><path class="cls-1" d="M517.49,112.7a1.61,1.61,0,0,0-1.82-1.36c-1.07,0-1.61.59-1.61,1.78v.24q.38,4.59.38,9.87a170.54,170.54,0,0,1-4.13,37.67q-3.22,13.88-6.48,20.51c-2.15,4.63-4.8,7-8,7.14-1.3-.14-2.6-1.43-3.92-3.88A54.34,54.34,0,0,1,488.23,174q-1.82-7.44-3.05-11.48-2.07-6.81-5.86-6.81a2.49,2.49,0,0,0-2.11,1,9.82,9.82,0,0,0-1.15,2.19,69.68,69.68,0,0,1-6.27,10.9,6.32,6.32,0,0,0-.42.66q-2.36,3.8-3.79,4.54a3.35,3.35,0,0,1-1.2.37,2.09,2.09,0,0,1-1.45-.7c-1.54-2.32-2.31-6.63-2.31-13q0-10.27,2.27-17a5.83,5.83,0,0,0,2.73-2,12.47,12.47,0,0,0,2.21-3.43,8,8,0,0,0,.72-2.91,4.49,4.49,0,0,0-.21-1.36c-.36-1.16-1.47-1.87-3.34-2.14a7.13,7.13,0,0,0-4.29,3.13,19.72,19.72,0,0,0-2.44,5.2,63.85,63.85,0,0,0-2.75,17.25c0,1,0,2,0,3.05,0,.19,0,.38,0,.57a43.33,43.33,0,0,0,1.76,13.42,8.18,8.18,0,0,0,3.05,4.17,4,4,0,0,0,2.15.62,4.83,4.83,0,0,0,2.27-.49q2.81-1.57,7.43-9.29l.08-.12a68.58,68.58,0,0,1,5-7.6q1.2-1.65,1.74-1.65h0a7.89,7.89,0,0,1,1.11,2.56,1.35,1.35,0,0,0,.13.37c.46,1.52,1.46,5.24,3,11.19a57.41,57.41,0,0,0,4.08,11.76q3.06,6.18,8.3,6.19h.25a8.14,8.14,0,0,0,5.73-3.39q4-4.78,8-16.46a83.87,83.87,0,0,0,3-11.6q5.11-26.33,5.12-41.93Q517.7,116.25,517.49,112.7Z"/><path class="cls-1" d="M619.34,157.73a2,2,0,0,0-1.47.89,6.94,6.94,0,0,0-.8,1.25,75.11,75.11,0,0,1-14.24,22q-2.6,2.81-4,2.95c-1,.09-1.52.14-1.65.14-1.57,0-2.72-.92-3.43-2.76q-2-6.48-3.05-23.69l0-.21a29.94,29.94,0,0,0-.78-5.81q-1.08-4-5.53-4.71a31.9,31.9,0,0,0-3.67-.37c-3.94-.11-5.9-1-5.9-2.77a6.86,6.86,0,0,1,.57-2.43,10.16,10.16,0,0,0,.83-3.71,5,5,0,0,0-.62-2.52,4.29,4.29,0,0,0-4-2.4,5.41,5.41,0,0,0-2.48.67q-3.51,2.06-4.12,4.53a16.59,16.59,0,0,0-.62,3.55,7.35,7.35,0,0,0,1.48,4.46,7.24,7.24,0,0,0,2.6,2.06q-6.11,8.79-14.77,11.93a18.68,18.68,0,0,1-6.19,1.28v-.13q.17-3.26.16-7.05a33.09,33.09,0,0,0-.57-6.6,16.27,16.27,0,0,0-2.85-5.86,9.33,9.33,0,0,0-3.59-3.1,8.86,8.86,0,0,0-3.59-.87,11.53,11.53,0,0,0-7.47,2.77,9.51,9.51,0,0,0-3.59,7.67,13.14,13.14,0,0,0,2.23,7.23,51.59,51.59,0,0,0-2.44,14.36,28.21,28.21,0,0,0,.74,6.44q1.57,6.11,5.2,8.54a5.41,5.41,0,0,0,3.1,1,8.06,8.06,0,0,0,5.53-2.4q5.33-5.12,7-18.94v-.33a22.47,22.47,0,0,0,7.27-1.4,34,34,0,0,0,7.84-4.58,37.22,37.22,0,0,0,8.46-9.24c.55.13,1.58.31,3.09.53q3.18.61,5.28.95a17.86,17.86,0,0,1,4.81,1.12,2.72,2.72,0,0,1,1.38,2.51q.21,2.4.46,6,.4,6,1,12.44a52.71,52.71,0,0,0,1.8,10.17q2.05,5.77,7.3,5.78a9.37,9.37,0,0,0,6.52-2.89q5.12-4.74,10.52-14.07l5-8.43h0l2.25-3.82v-.53C620.24,158.26,619.94,157.73,619.34,157.73ZM541,177.86c-1.32,3-2.83,4.46-4.54,4.46a4.59,4.59,0,0,1-1-.14,5,5,0,0,1-1.8-1.61,13.06,13.06,0,0,1-2.12-4.77,20.21,20.21,0,0,1-.58-5.12,45.83,45.83,0,0,1,1.28-9.9,24.84,24.84,0,0,0,11.93,4.29Q542.87,173.82,541,177.86Zm3.38-16q-9.61-1.23-12.79-9.74a9.76,9.76,0,0,1-.41-2.72,7.94,7.94,0,0,1,.33-2.27,7.7,7.7,0,0,1,1.94-3.51,5.59,5.59,0,0,1,3.59-1.69q3.09,0,5.16,3.59a15.5,15.5,0,0,1,1.69,4,44.13,44.13,0,0,1,.58,8.09C544.44,159.09,544.41,160.5,544.35,161.85Z"/><path class="cls-1" d="M722.46,158.92a3.26,3.26,0,0,1-.2,1l-1.32,2.1q-1.32,2.1-3.47,5.11a56.78,56.78,0,0,1-9.16,10.36c-3.67,3-7.29,4.5-10.9,4.5-.41,0-1.32-.05-2.72-.14s-3-1-4.66-2.75a24.57,24.57,0,0,1-5.31-11.34,83.19,83.19,0,0,1-1.42-12.55l-.16-2.39c-.33-5.72-1-9.16-1.9-10.28a1.53,1.53,0,0,0-1.24-.49c-.77,0-1.61.57-2.52,1.73a37.54,37.54,0,0,0-3,4.7l-.09.21q-4.53,8.1-9,17.85t-7.26,17.14l-2.85,7.39a2,2,0,0,1-1.9,1.32,2.56,2.56,0,0,1-1.55-.57,2.18,2.18,0,0,1-.76-1.83l.25-13.28q.21-13.25,1.09-34.36.75-17.88,2.18-38.22l0-.33,1.72-21.53c.63-7.3,1.39-14.51,2.24-21.6.12-1.27.21-2.57.29-3.92.16-2.48.37-4.83.61-7a17.68,17.68,0,0,1,1.24-5.18c1-1.51,2-2.27,2.89-2.27a2.06,2.06,0,0,1,1.86,1,2.27,2.27,0,0,1,.46,1.41,2.89,2.89,0,0,1-.08.65q-2.08,13.85-3.67,28.35l0,.49L661,86.28l-.76,8-1.15,12.13,0,.24q-1.71,21.54-2.63,39.71-1.11,22.13-1.35,32.78c0,.69.2,1,.45,1q.74,0,2.77-3.84c1.56-3.07,3.17-6.67,4.82-10.77a177.76,177.76,0,0,1,9-19,52,52,0,0,1,3-5c2-2.87,4-4.29,6.15-4.29a5.6,5.6,0,0,1,1.77.29,7.12,7.12,0,0,1,3.43,3.79,21.67,21.67,0,0,1,1.28,5,47.5,47.5,0,0,1,.53,6.15,116.4,116.4,0,0,0,1.4,12.93,21.51,21.51,0,0,0,4.22,10.26,8.82,8.82,0,0,0,9.2,1.69,24.17,24.17,0,0,0,8-6,78.44,78.44,0,0,0,7.39-10.27l1.24-2c.36-.9.89-1.36,1.61-1.36a1.06,1.06,0,0,1,.77.32A1.23,1.23,0,0,1,722.46,158.92Z"/><path class="cls-1" d="M945.94,148.39a2.19,2.19,0,0,0-1.38-.36q-.12,0-14.3,2.41t-23.42,3.37q-.08-7.94-.08-15.73,0-48.69,3.76-92.89c1.07,0,1.67-.58,1.79-1.75s.19-2.18.19-3a19.84,19.84,0,0,0-.29-3.09,22.87,22.87,0,0,0-.74-3.92,3.64,3.64,0,0,0-1.33-2,3.11,3.11,0,0,0-1.85-.7c-1,0-1.65.64-2,1.94l-.79,9.32q-2.22,27.24-3,64.58-.29,12.51-.29,26.21,0,10.51.16,21.75-11.51,1.65-24.3,3.05-18.78,2.23-26.12,3.26-14.16,2.07-27,3.22l15.39-39.62q14.52-37.5,30.37-64.31t31.78-39.76q5.12-4.1,7.88-4.09c1.21,0,1.82.54,1.82,1.61a7.21,7.21,0,0,1-.38,2.11,12,12,0,0,0-.45,3,4.67,4.67,0,0,0,.54,2.27q1.27,2.19,2.19,2.43a5.74,5.74,0,0,0,1.52.25,3.09,3.09,0,0,0,1.57-.41,5.21,5.21,0,0,0,1.77-1.57,6,6,0,0,0,1-3,18.29,18.29,0,0,0-.94-5.95q-2.82-5-7.8-5-6,0-12.43,5.33-33.82,27.34-63.13,102.75Q833,126.77,829,137.51q-5.4,14.19-10.23,26.74a136.29,136.29,0,0,1-19.15,2.27,14.62,14.62,0,0,1-2.35.2,25.62,25.62,0,0,1-4.75-.49,12.63,12.63,0,0,0-8.5-3.43,12.23,12.23,0,0,0-7.88,3.3l0,.09a3.15,3.15,0,0,0-.87,1.27,2.51,2.51,0,0,0-.08.62,3.17,3.17,0,0,0,.49,1.86,3.34,3.34,0,0,0,2.4,1.53,17.88,17.88,0,0,0,3.55.29q1.4,0,9.9-.62a17,17,0,0,1,2.19,2.43,39.72,39.72,0,0,1,5.53,12.34,77.15,77.15,0,0,1,2.6,20,31.94,31.94,0,0,1-.37,3.26q-.21,1.32-.33,2.55c-.25.64-.49,1.24-.73,1.82s-.46,1.21-.68,1.9Q781.06,265,781.06,273.4c0,1.81.72,3,2.15,3.42a4.88,4.88,0,0,0,1.48.29q5.09-.33,13.74-26.49A153.13,153.13,0,0,0,805,216q6.6-17.58,18.69-48.41,9.54-1.23,30.7-4.17l20-2.6q14.76-1.86,27.89-3.75,1,44.23,5.74,83c.36,2,.78,3.05,1.28,3.13a6.58,6.58,0,0,0,1.07.13,3.45,3.45,0,0,0,2.35-1.08,3.86,3.86,0,0,0,1.28-2.76,26.49,26.49,0,0,0-2.06-8,21.34,21.34,0,0,1-1.61-5.32q-2.47-19.8-3.18-34.46-.37-9.41-.37-17.58,0-3.14,0-6.1,0-5.58,0-11.72l37.8-5.41a3.67,3.67,0,0,0,1-.42,1.37,1.37,0,0,0,.71-1.19A1.17,1.17,0,0,0,945.94,148.39ZM810.61,186.08q-2.9,8.32-5.9,16.26a82.53,82.53,0,0,0-1.53-10.82,104.55,104.55,0,0,0-3.26-12.15,27.58,27.58,0,0,0-4.13-8.44q6.74-.66,12.59-1.57c2.94-.41,5.85-.79,8.71-1.15Q813.82,176.79,810.61,186.08Z"/><path class="cls-1" d="M1007.47,157.85a1.42,1.42,0,0,0-.93-.29,1.88,1.88,0,0,0-1.36.74h0l-.9,2a47,47,0,0,1-5.86,9.95,62.75,62.75,0,0,1-5.9,6.44q-5.4,5.24-9.08,5.24a4.21,4.21,0,0,1-3.46-2q-1.32-2-1.32-10.44,0-4,.37-8.83.33-6,.33-10.86c0-1.51,0-2.94,0-4.29a9.6,9.6,0,0,0-1.16-4.17,4.35,4.35,0,0,0-2.12-2.21,6.14,6.14,0,0,0-1.59-.35,5,5,0,0,0-2.85,1.08q-13.7,10.44-20.1,37.38-3.63,15.24-5.2,37.43.5-23.56,2.31-43.45t5.25-42v-.25a2.3,2.3,0,0,0-.73-1.61,2.41,2.41,0,0,0-1.79-.74,3.28,3.28,0,0,0-2.6,1.82,23.94,23.94,0,0,0-2.81,5,8.26,8.26,0,0,0-.49,2.31,3.63,3.63,0,0,0,1.44,2.68,2.59,2.59,0,0,1,.37.37c-.46,3.37-.9,6.6-1.3,9.69-.09.74-.19,1.47-.27,2.19q-3.12,24.48-3.44,36.69-.39,15-.39,20.68,0,16.92,1.32,30.54.38,6.56,1.5,15.51a80.65,80.65,0,0,0,3,14.73c.79,1.9,1.77,2.85,2.93,2.85h.24c1.27-.16,1.9-1.4,1.9-3.71l-.74-4.09q-.71-4-1.55-11.63c-.56-5.07-1-10.4-1.21-16s-.38-10.74-.38-15.39c0-3.49.06-7.14.17-10.93.16-1.52.32-3.09.45-4.71q.42-5.49,1.32-12.5,3-23.28,12.43-39.54a31.2,31.2,0,0,1,5.13-7.07c1.5-1.39,2.73-2.09,3.7-2.09a1.88,1.88,0,0,1,2.06,2c.05,1.19.08,2.49.08,3.92,0,3.3-.14,6.83-.41,10.57q-.33,4.41-.33,8.46t.33,7.67a14.33,14.33,0,0,0,1.73,6.11,5.72,5.72,0,0,0,2.21,2,5.59,5.59,0,0,0,2.58.68,6.41,6.41,0,0,0,.95-.08q9.36-2.1,18.36-13.7a77.19,77.19,0,0,0,4.78-6.66q1.23-1.9,2.32-3.86l1.07-1.9v-.37A1,1,0,0,0,1007.47,157.85Z"/><path class="cls-1" d="M1067.93,157.85a1.46,1.46,0,0,0-.93-.29,1.86,1.86,0,0,0-1.36.74h0l-.91,2a47.39,47.39,0,0,1-5.86,9.95,63.91,63.91,0,0,1-5.9,6.44q-5.42,5.24-9.08,5.24a4.22,4.22,0,0,1-3.47-2q-1.32-2-1.32-10.44c0-2.7.13-5.64.37-8.83q.33-6,.33-10.86c0-1.51,0-2.94,0-4.29a9.46,9.46,0,0,0-1.15-4.17,4.36,4.36,0,0,0-2.13-2.21,6.14,6.14,0,0,0-1.59-.35,5,5,0,0,0-2.84,1.08q-13.71,10.44-20.1,37.38-3.63,15.24-5.2,37.43.5-23.56,2.31-43.45t5.24-42v-.25a2.28,2.28,0,0,0-.72-1.61,2.42,2.42,0,0,0-1.8-.74,3.3,3.3,0,0,0-2.6,1.82,23.76,23.76,0,0,0-2.8,5,8.36,8.36,0,0,0-.5,2.31,3.61,3.61,0,0,0,1.45,2.68,2.59,2.59,0,0,1,.37.37q-1.49,10.76-2.52,19.6h0c-.27,2.27-.51,4.45-.74,6.54q-1.53,14.07-1.74,22.42-.41,15-.4,20.68,0,16.92,1.32,30.54.38,6.56,1.51,15.51a81.59,81.59,0,0,0,3,14.73c.8,1.9,1.78,2.85,2.93,2.85h.25c1.27-.16,1.9-1.4,1.9-3.71l-.74-4.09q-.71-4-1.55-11.63c-.57-5.07-1-10.4-1.22-16s-.37-10.74-.37-15.39c0-3.49.06-7.14.17-10.93q.24-2.28.45-4.71.4-5.49,1.32-12.5,3-23.28,12.42-39.54a31.49,31.49,0,0,1,5.14-7.07c1.5-1.39,2.73-2.09,3.69-2.09a1.89,1.89,0,0,1,2.07,2c.05,1.19.08,2.49.08,3.92,0,3.3-.14,6.83-.42,10.57q-.33,4.41-.33,8.46t.33,7.67a14.48,14.48,0,0,0,1.74,6.11,5.65,5.65,0,0,0,2.21,2,5.59,5.59,0,0,0,2.58.68,6.28,6.28,0,0,0,.94-.08q9.38-2.1,18.37-13.7a76.41,76.41,0,0,0,6.5-9.48c.21-.35.41-.69.6-1l1.07-1.9v-.37A1.07,1.07,0,0,0,1067.93,157.85Z"/><path class="cls-1" d="M1121,159.29a1.34,1.34,0,0,0-.54-1.11,1.19,1.19,0,0,0-.7-.29,1,1,0,0,0-.5.13q-12.33,5.56-26.74,16.79-3.46-1.6-6.93-3a45.13,45.13,0,0,1-8.46-4.23,14.65,14.65,0,0,1-5.22-5.3,12.79,12.79,0,0,1-1.51-5.95,13.92,13.92,0,0,1,3.55-9.53,18.56,18.56,0,0,1,5.39-4.17,12.38,12.38,0,0,1,5.55-1.48,10.1,10.1,0,0,1,5.2,1c1.1.69,1.72,1.35,1.85,2a7.67,7.67,0,0,1,.21,1.47,4.25,4.25,0,0,1-1,2.49,14.65,14.65,0,0,0-1.67,2.85,6.54,6.54,0,0,0-.66,2.5,4.62,4.62,0,0,0,.54,2.1,4.33,4.33,0,0,0,1.48,1.59,3.49,3.49,0,0,0,1.34.52l.68,0a6.32,6.32,0,0,0,1.28-.13,4.81,4.81,0,0,0,1.12-.33l.45-.2a6.2,6.2,0,0,0,2-4.21c0-1.43,0-2.18,0-2.23a12.44,12.44,0,0,0-1.48-6.52,15.09,15.09,0,0,0-6-5,16.06,16.06,0,0,0-14.44-.13,17.85,17.85,0,0,0-10.15,13.17,26.33,26.33,0,0,0-.21,3.26,18.69,18.69,0,0,0,.21,2.84h0a15.65,15.65,0,0,0,1,3.72,17.58,17.58,0,0,0,8.31,8.94,68.9,68.9,0,0,0,9.82,4.54c1.41.58,2.56,1.08,3.47,1.49l1.36.66a36.53,36.53,0,0,0-4.29,5.32,17.3,17.3,0,0,0-2.76,9,13,13,0,0,0,.16,2.06,4.27,4.27,0,0,0,1.24,2.27,5.4,5.4,0,0,0,3.88,1.41,10.93,10.93,0,0,0,6.81-2.77,13.17,13.17,0,0,0,3.51-4.37,10.42,10.42,0,0,0,1.17-3.66c.1-1.08.15-1.81.15-2.16q0-5.87-4.46-8.75l-.12,0a97.79,97.79,0,0,1,25.79-16A.92.92,0,0,0,1121,159.29Zm-25.84,24.81a6,6,0,0,1-.2,1.56,13.46,13.46,0,0,1-1.1,2.67,10.93,10.93,0,0,1-2,2.39,12.24,12.24,0,0,1-2.64,2,4.54,4.54,0,0,1-2,.66,1.71,1.71,0,0,1-.91-.25,3.08,3.08,0,0,1-1-2.51,8.38,8.38,0,0,1,.13-1.32,13.89,13.89,0,0,1,1.73-5,35.37,35.37,0,0,1,4.7-5.44c1.63,1,2.57,2,2.83,2.93A8.48,8.48,0,0,1,1095.14,184.1Z"/><path class="cls-1" d="M176.14,261.28h15.12v11.28a18.88,18.88,0,0,1-12.6,4.68c-12.81,0-18.54-9.25-18.54-18.42a18.86,18.86,0,0,1,5.21-13.64c3.31-3.33,7.91-5.09,13.33-5.09a19.66,19.66,0,0,1,13.52,5.4l.44.44,2.73-3-.41-.41a23.08,23.08,0,0,0-16.28-6.67c-6.74,0-12.51,2.21-16.68,6.4s-6.32,9.91-6.29,16.62c0,11.31,7.11,22.72,23,22.72a23.1,23.1,0,0,0,16.78-7.18l.17-.17V257.17H176.14Z"/><polygon class="cls-1" points="227.76 260.72 253.16 260.72 253.16 256.49 227.76 256.49 227.76 240.83 254.4 240.83 254.4 236.47 223.28 236.47 223.28 281.04 255.15 281.04 255.15 276.62 227.76 276.62 227.76 260.72"/><polygon class="cls-1" points="280.33 240.71 296.01 240.71 296.01 281.04 300.55 281.04 300.55 240.71 316.23 240.71 316.23 236.54 280.33 236.54 280.33 240.71"/><polygon class="cls-1" points="394.98 275.13 379.34 236.47 374.45 236.47 392.78 281.17 397.18 281.17 415.51 236.47 410.62 236.47 394.98 275.13"/><rect class="cls-1" x="439.66" y="236.48" width="4.48" height="44.57"/><path class="cls-1" d="M489.85,256l-.48-.09c-7.71-1.44-12.77-2.74-12.77-7.59,0-8,11.26-8.2,12.53-8.2,4.79.06,9.64.78,12.63,5.61l.31.49,3.78-2.23-.35-.53c-4.25-6.34-9.61-7.63-16.36-7.63-5.89,0-11.16,1.79-14.1,4.79a10.47,10.47,0,0,0-3,7.82c0,8.52,8.78,10.23,16.53,11.74,6.8,1.3,13.82,2.65,13.77,8.71,0,7.73-9.25,8.57-13.22,8.57-5.2,0-11.77-2.59-14.27-7.54l-.27-.53-4.05,2,.27.54c3.63,7.18,11.84,9.74,18.32,9.74,4.15,0,17.69-.92,17.76-12.74C506.9,259.31,498.23,257.64,489.85,256Z"/><rect class="cls-1" x="532.65" y="236.48" width="4.48" height="44.57"/><path class="cls-1" d="M592.67,258.16a10,10,0,0,0,5.91-9.25c0-9.18-8-12.43-14.85-12.43H565.35V281h18.38c10.39,0,16.34-4.35,16.34-11.94A11.65,11.65,0,0,0,592.67,258.16ZM569.9,240.52h13.83c5.23,0,10.49,2.6,10.49,8.39,0,6-5.46,7.2-10.05,7.2H569.9Zm13.83,36.1H569.9V260.47h14.27c5.48,0,11.36,2.26,11.42,8.57S589.14,276.62,583.73,276.62Z"/><polygon class="cls-1" points="631.23 236.47 626.68 236.47 626.68 281.04 655.64 281.04 655.64 276.68 631.23 276.68 631.23 236.47"/><polygon class="cls-1" points="685.06 276.62 685.06 260.72 710.46 260.72 710.46 256.49 685.06 256.49 685.06 240.83 711.7 240.83 711.7 236.47 680.58 236.47 680.58 281.04 712.44 281.04 712.44 276.62 685.06 276.62"/><path class="cls-1" d="M332.62,119.68l-1.26,5.65-2.42,10.9q-7.72,35.36-12.75,53Q307.49,220,299.72,220c-3.07,0-5.74-2.05-8-6.15a33.14,33.14,0,0,1-2.77-7.39q-4.37-18.73-4.37-49,0-6,.16-12.38.78-24.06,1.45-29.18l.58-6.35c.07-.87.15-1.67.25-2.42l.08-.74.07-.55c.05-.35.1-.69.15-1,.21-1.26.35-2.43.43-3.51,0-.53.09-1,.13-1.53v-.17l.77-6.53.07-.64q1.71-14.1,3.24-21.58a19.17,19.17,0,0,1,1.65-5.12,6.71,6.71,0,0,1,2.8-3.34,1.54,1.54,0,0,1,.58-.12c.83,0,1.62.83,2.35,2.51a13.52,13.52,0,0,1,.54,1.77,32.52,32.52,0,0,1,.42,6.07,82.74,82.74,0,0,1-2.61,19.8s0,.12,0,.2a1.63,1.63,0,0,0-.07.26s0,0,0,0,0,.13-.06.22a4.7,4.7,0,0,1-.22.78s0,.06,0,.09l0,.13h0c-.44,1.63-1.06,3.88-1.28,4.65,0,.1-.06.18-.07.23a78.22,78.22,0,0,1-3.2,8l-.5,1a118.55,118.55,0,0,0-1.87,13.89q-.64,7.86-1.14,20.93c-.49,10.83-.74,20.09-.74,27.83q0,4.6.29,13.42a111,111,0,0,0,3.09,21,39.17,39.17,0,0,0,1.94,6.31q2.44,6.19,5.86,6.19h.12a4,4,0,0,0,2.36-1.31q7.77-7.77,18.24-53,3.14-13.67,6.11-27.24,2.17-10.09,4.2-18.87Z"/><path class="cls-1" d="M367.85,141.52q-.25,4.53-.4,9.15c0,1.31-.08,2.62-.1,3.93-1.55,6.72-3,12.72-4.37,18q-1.61,6.27-3,11.18-8.7,30.75-16.47,30.74-4.62,0-8-6.14a33.14,33.14,0,0,1-2.77-7.39q-4.36-18.74-4.38-49c0-4,.07-8.12.17-12.38q.78-24.06,1.44-29.18l.59-6.35c.07-.87.15-1.67.24-2.42l.09-.74.07-.55c.05-.35.1-.69.15-1,.21-1.26.35-2.43.43-3.51,0-.53.08-1,.12-1.54v-.16l.77-6.53.07-.64q1.71-14.1,3.24-21.58a19.42,19.42,0,0,1,1.65-5.12,6.63,6.63,0,0,1,2.81-3.34,1.5,1.5,0,0,1,.57-.12c.83,0,1.62.83,2.36,2.51a12.22,12.22,0,0,1,.53,1.77,31.59,31.59,0,0,1,.42,6.07,83.21,83.21,0,0,1-2.6,19.8s0,.12,0,.2a1.63,1.63,0,0,0-.07.26s0,0,0,0,0,.13-.06.21a5.66,5.66,0,0,1-.22.79s0,0,0,.08,0,.1,0,.14h0c-.44,1.63-1.07,3.88-1.28,4.65,0,.1-.06.17-.07.23a80.62,80.62,0,0,1-3.2,8l-.5,1a118.4,118.4,0,0,0-1.88,13.89q-.65,7.84-1.13,20.93-.75,16.23-.74,27.82,0,4.62.28,13.43a110.92,110.92,0,0,0,3.1,20.94,39.59,39.59,0,0,0,1.94,6.32c1.63,4.13,3.57,6.19,5.86,6.19h.12a4.07,4.07,0,0,0,2.36-1.32q7.16-7.16,16.62-46.18c.53-2.2,1.07-4.49,1.62-6.85Q366.05,149.6,367.85,141.52Z"/><path class="cls-1" d="M657.25,141.52c-.16,3-.3,6.07-.4,9.15q-.06,2-.09,3.93-2.34,10.08-4.38,18c-1.06,4.18-2.07,7.91-3,11.18q-8.7,30.75-16.47,30.74c-3.07,0-5.74-2.05-8-6.14a33.14,33.14,0,0,1-2.77-7.39q-4.36-18.74-4.37-49,0-6,.16-12.38.79-24.06,1.45-29.18l.58-6.35c.07-.87.16-1.67.25-2.42l.08-.74.07-.55c.05-.35.1-.69.15-1,.21-1.26.35-2.43.44-3.51,0-.53.08-1,.12-1.54v-.16l.77-6.53L622,87q1.71-14.1,3.24-21.58a19.06,19.06,0,0,1,1.65-5.12,6.67,6.67,0,0,1,2.8-3.34,1.54,1.54,0,0,1,.58-.12c.83,0,1.62.83,2.36,2.51a15.38,15.38,0,0,1,.53,1.77,32.44,32.44,0,0,1,.42,6.07,83.21,83.21,0,0,1-2.6,19.8,1.93,1.93,0,0,0-.05.2,1.63,1.63,0,0,0-.07.26s0,0,0,0,0,.13-.06.21a5.67,5.67,0,0,1-.21.79s0,0,0,.08,0,.1,0,.14h0c-.44,1.63-1.06,3.88-1.28,4.65,0,.1-.06.17-.07.23a80.33,80.33,0,0,1-3.19,8l-.51,1a118.55,118.55,0,0,0-1.87,13.89q-.65,7.84-1.14,20.93-.73,16.23-.74,27.82,0,4.62.29,13.43a110.82,110.82,0,0,0,3.09,20.94,39.59,39.59,0,0,0,1.94,6.32q2.44,6.19,5.86,6.19H633a4.08,4.08,0,0,0,2.35-1.32q7.17-7.16,16.62-46.18c.54-2.2,1.08-4.49,1.62-6.85Q655.45,149.6,657.25,141.52Z"/><path class="cls-1" d="M297.33,94l0,.13h0Z"/><path class="cls-1" d="M287.92,99.78c0,.49-.08,1-.13,1.53-.08,1.08-.22,2.25-.43,3.51-.05.31-.1.65-.15,1Z"/><path class="cls-1" d="M359.62,100.77a18.18,18.18,0,0,0-6.23-1c-2.26,0-3.79.29-4.62.91a1,1,0,0,0-.5.78,1.64,1.64,0,0,0,.37.87l.49.45q-6.81,2-36.31,4.33l-8.29.62q-18.33,1.37-38.75,2.4l-7.89.36-1.42.08c-3.38.16-2.65,3.45,0,3.2l.52,0,21.41-.92.38,0q14.66-.75,24.8-1.44l8.83-.67q41.22-3.09,47.62-5.86c1.35-.58,2-1.24,2-2S361.25,101.34,359.62,100.77Z"/><path class="cls-1" d="M653.2,101.69q0,1-2.1,1.65c-4.34,1.42-28.46,2-56,2.59l-1.81,0a1.69,1.69,0,0,1-1.83-1.64h0a1.66,1.66,0,0,1,1.71-1.48l2.49,0c19.71-.48,40.05-.81,44.64-1.77l-.47-.42a1.25,1.25,0,0,1-.34-.78c0-.24.19-.46.53-.66.85-.51,2.4-.7,4.65-.59a20.28,20.28,0,0,1,6.18,1.16C652.46,100.31,653.24,101,653.2,101.69Z"/></g></g></svg>